<?xml version="1.0" encoding="utf-8"?>
<!-- Generator: Adobe Illustrator 16.0.0, SVG Export Plug-In . SVG Version: 6.00 Build 0)  -->
<!DOCTYPE svg PUBLIC "-//W3C//DTD SVG 1.1//EN" "http://www.w3.org/Graphics/SVG/1.1/DTD/svg11.dtd">
<svg version="1.1" id="레이어_1" xmlns="http://www.w3.org/2000/svg" xmlns:xlink="http://www.w3.org/1999/xlink" x="0px"
	 y="0px" width="300px" height="300px" viewBox="0 0 300 300" enable-background="new 0 0 300 300" xml:space="preserve">
<g>
	<path d="M252.559,47.442c6.941,6.941,8.809,16.326,4.172,20.963L68.405,256.731c-4.637,4.636-14.021,2.768-20.963-4.172l0,0
		c-6.941-6.941-8.809-16.327-4.173-20.965L231.596,43.27C236.232,38.633,245.617,40.501,252.559,47.442L252.559,47.442z"/>
	<path d="M43.27,68.405c-4.636-4.636-2.77-14.021,4.172-20.962l0,0c6.94-6.94,16.327-8.809,20.963-4.173L256.73,231.597
		c4.637,4.636,2.768,14.021-4.174,20.963l0,0c-6.939,6.94-16.324,8.808-20.961,4.172"/>
</g>
</svg>
