<?xml version="1.0" encoding="utf-8"?>
<!-- Generator: Adobe Illustrator 16.0.0, SVG Export Plug-In . SVG Version: 6.00 Build 0)  -->
<!DOCTYPE svg PUBLIC "-//W3C//DTD SVG 1.1//EN" "http://www.w3.org/Graphics/SVG/1.1/DTD/svg11.dtd">
<svg version="1.1" id="레이어_1" xmlns="http://www.w3.org/2000/svg" xmlns:xlink="http://www.w3.org/1999/xlink" x="0px"
	 y="0px" width="300px" height="300px" viewBox="0 0 300 300" enable-background="new 0 0 300 300" xml:space="preserve">
<g>
	<path fill-rule="evenodd" clip-rule="evenodd" fill="#1A1414" d="M150,46.794c-58.434,0-105.817,47.375-105.817,105.817
		c0,46.755,30.32,86.418,72.366,100.413c5.287,0.979,7.229-2.296,7.229-5.093c0-2.523-0.097-10.859-0.144-19.7
		c-29.438,6.401-35.65-12.484-35.65-12.484c-4.813-12.231-11.749-15.484-11.749-15.484c-9.602-6.568,0.724-6.433,0.724-6.433
		c10.625,0.745,16.221,10.907,16.221,10.907c9.438,16.174,24.754,11.499,30.793,8.794c0.95-6.837,3.691-11.509,6.719-14.15
		c-23.504-2.675-48.213-11.749-48.213-52.295c0-11.552,4.134-20.994,10.904-28.403c-1.099-2.667-4.721-13.428,1.025-28.004
		c0,0,8.887-2.843,29.106,10.848c8.441-2.345,17.495-3.52,26.486-3.562c8.992,0.042,18.052,1.217,26.508,3.562
		c20.2-13.691,29.071-10.848,29.071-10.848c5.762,14.577,2.14,25.338,1.042,28.004c6.781,7.41,10.891,16.851,10.891,28.403
		c0,40.645-24.756,49.591-48.32,52.213c3.795,3.281,7.177,9.723,7.177,19.593c0,14.159-0.122,25.557-0.122,29.04
		c0,2.815,1.906,6.115,7.269,5.08c42.02-14.009,72.303-53.662,72.303-100.4C255.817,94.169,208.44,46.794,150,46.794z"/>
	<path fill="#1A1414" d="M84.261,198.727c-0.232,0.527-1.06,0.685-1.813,0.322c-0.769-0.348-1.198-1.062-0.951-1.588
		c0.228-0.542,1.057-0.692,1.823-0.332C84.089,197.474,84.527,198.199,84.261,198.727L84.261,198.727z M82.959,197.761"/>
	<path fill="#1A1414" d="M88.548,203.507c-0.505,0.466-1.492,0.251-2.161-0.489c-0.693-0.738-0.821-1.725-0.31-2.2
		c0.52-0.466,1.476-0.246,2.169,0.489C88.94,202.054,89.076,203.031,88.548,203.507L88.548,203.507z M87.539,202.423"/>
	<path fill="#1A1414" d="M92.72,209.601c-0.648,0.449-1.709,0.03-2.365-0.912c-0.649-0.94-0.649-2.069,0.016-2.521
		c0.655-0.451,1.7-0.044,2.364,0.888C93.382,208.013,93.382,209.143,92.72,209.601L92.72,209.601z M92.72,209.601"/>
	<path fill="#1A1414" d="M98.436,215.489c-0.58,0.641-1.815,0.467-2.719-0.405c-0.925-0.853-1.183-2.064-0.602-2.705
		c0.589-0.639,1.831-0.46,2.742,0.407C98.774,213.639,99.053,214.856,98.436,215.489L98.436,215.489z M98.436,215.489"/>
	<path fill="#1A1414" d="M106.321,218.909c-0.256,0.827-1.445,1.205-2.643,0.852c-1.198-0.362-1.98-1.334-1.738-2.171
		c0.248-0.833,1.444-1.228,2.65-0.851C105.786,217.104,106.57,218.064,106.321,218.909L106.321,218.909z M106.321,218.909"/>
	<path fill="#1A1414" d="M114.983,219.542c0.028,0.872-0.989,1.596-2.246,1.613c-1.265,0.025-2.29-0.678-2.304-1.538
		c0-0.882,0.994-1.599,2.258-1.618C113.95,217.975,114.983,218.677,114.983,219.542L114.983,219.542z M114.983,219.542"/>
	<path fill="#1A1414" d="M123.04,218.17c0.151,0.853-0.723,1.725-1.973,1.958c-1.228,0.226-2.365-0.301-2.522-1.144
		c-0.152-0.872,0.738-1.749,1.965-1.975C121.76,216.793,122.881,217.305,123.04,218.17L123.04,218.17z M123.04,218.17"/>
</g>
</svg>
