<?xml version="1.0" encoding="utf-8"?>
<!-- Generator: Adobe Illustrator 16.0.0, SVG Export Plug-In . SVG Version: 6.00 Build 0)  -->
<!DOCTYPE svg PUBLIC "-//W3C//DTD SVG 1.1//EN" "http://www.w3.org/Graphics/SVG/1.1/DTD/svg11.dtd">
<svg version="1.1" id="레이어_1" xmlns="http://www.w3.org/2000/svg" xmlns:xlink="http://www.w3.org/1999/xlink" x="0px"
	 y="0px" width="300px" height="300px" viewBox="0 0 300 300" enable-background="new 0 0 300 300" xml:space="preserve">
<g>
	<path d="M264.721,64.507c0,7.764-4.204,14.058-9.391,14.058H44.669c-5.186,0-9.391-6.294-9.391-14.058l0,0
		c0-7.764,4.205-14.059,9.391-14.059H255.33C260.517,50.449,264.721,56.743,264.721,64.507L264.721,64.507z"/>
	<path d="M44.669,164.057c-5.186,0-9.391-6.293-9.391-14.058l0,0c0-7.764,4.205-14.058,9.391-14.058H255.33
		c5.187,0,9.391,6.294,9.391,14.058l0,0c0,7.765-4.204,14.058-9.391,14.058"/>
	<path d="M264.721,235.49c0,7.766-4.204,14.061-9.391,14.061H44.669c-5.186,0-9.391-6.295-9.391-14.061l0,0
		c0-7.764,4.205-14.061,9.391-14.061H255.33C260.517,221.43,264.721,227.727,264.721,235.49L264.721,235.49z"/>
</g>
</svg>
