<?xml version="1.0" encoding="utf-8"?>
<!-- Generator: Adobe Illustrator 16.0.0, SVG Export Plug-In . SVG Version: 6.00 Build 0)  -->
<!DOCTYPE svg PUBLIC "-//W3C//DTD SVG 1.1//EN" "http://www.w3.org/Graphics/SVG/1.1/DTD/svg11.dtd">
<svg version="1.1" id="레이어_1" xmlns="http://www.w3.org/2000/svg" xmlns:xlink="http://www.w3.org/1999/xlink" x="0px"
	 y="0px" width="300px" height="300px" viewBox="0 0 300 300" enable-background="new 0 0 300 300" xml:space="preserve">
<g>
	<g>
		<path fill="#234A96" d="M226.65,100.739c0-42.333-34.317-76.65-76.65-76.65s-76.65,34.317-76.65,76.65
			c0,28.49,27.939,56.016,27.939,56.016c5.877,5.79,8.391,10.527,5.586,10.527s-2.361,6.169,0.987,13.71l36.051,81.209
			c3.347,7.541,8.824,7.54,12.172,0l36.051-81.209c3.348-7.54,3.792-13.71,0.987-13.71s-0.29-4.737,5.587-10.527
			C198.711,156.755,226.65,129.229,226.65,100.739z M150,151.015c-29.162,0-52.803-23.64-52.803-52.803
			c0-29.162,23.641-52.803,52.803-52.803s52.803,23.641,52.803,52.803C202.803,127.375,179.162,151.015,150,151.015z"/>
	</g>
</g>
</svg>
