<?xml version="1.0" encoding="utf-8"?>
<!-- Generator: Adobe Illustrator 16.0.0, SVG Export Plug-In . SVG Version: 6.00 Build 0)  -->
<!DOCTYPE svg PUBLIC "-//W3C//DTD SVG 1.1//EN" "http://www.w3.org/Graphics/SVG/1.1/DTD/svg11.dtd">
<svg version="1.1" id="레이어_1" xmlns="http://www.w3.org/2000/svg" xmlns:xlink="http://www.w3.org/1999/xlink" x="0px"
	 y="0px" width="300px" height="300px" viewBox="0 0 300 300" enable-background="new 0 0 300 300" xml:space="preserve">
<g>
	<g>
		<g>
			<path fill="none" stroke="#6BB93F" stroke-width="12" stroke-linecap="round" stroke-miterlimit="10" d="M281.943,56.109H38.055
				c-11,0-20,9-20,20v147.781c0,11,9,20,20,20h73.989c11,0,24.744,0,30.542,0s10.542,0,10.542,0"/>
		</g>
	</g>
	<g>
		<path fill="none" stroke="#6BB93F" stroke-width="12" stroke-linecap="round" stroke-miterlimit="10" d="M244.877,204.084
			c0,0,0,8.955,0,19.902s-9,19.904-20,19.904h-83.843"/>
	</g>
	<g>
		<path fill="#69BB65" stroke="#69BB65" stroke-width="3" stroke-miterlimit="10" d="M111.567,120.076H60.355v21.041h46.901v17.367
			H60.355v25.859h53.366v17.492H40.455v-99.38h71.112V120.076z"/>
		<path fill="#69BB65" stroke="#69BB65" stroke-width="3" stroke-miterlimit="10" d="M187.623,102.456h20.914l-32.322,101.788
			h-19.143l-32.196-101.788h21.676l20.535,77.577h0.127L187.623,102.456z"/>
	</g>
	<g>
		<path fill="#6DBB5C" d="M274.924,149.481c0.74-0.813,0.473-1.696-0.596-1.962l-15.953-3.961c-1.068-0.266-1.725-1.355-1.461-2.424
			l12.887-51.903c0.266-1.067-0.123-1.274-0.863-0.462l-50.328,55.348c-0.74,0.813-0.473,1.695,0.596,1.961l15.953,3.962
			c1.068,0.265,1.725,1.355,1.459,2.423l-12.887,51.902c-0.264,1.068,0.125,1.275,0.865,0.463L274.924,149.481z"/>
	</g>
</g>
</svg>
