<svg width="764" height="296" viewBox="0 0 764 296" fill="none" xmlns="http://www.w3.org/2000/svg">
<path d="M114.844 134.893V150.991H34.043V134.893H114.844ZM37.1191 70.7031V220H17.3291V70.7031H37.1191ZM132.07 70.7031V220H112.383V70.7031H132.07ZM188.467 70.7031V220H168.677V70.7031H188.467ZM245.684 70.7031V220H225.894V70.7031H245.684ZM396.621 140.635V150.068C396.621 161.279 395.22 171.328 392.417 180.215C389.614 189.102 385.581 196.655 380.317 202.876C375.054 209.097 368.73 213.848 361.348 217.129C354.033 220.41 345.83 222.051 336.738 222.051C327.92 222.051 319.819 220.41 312.437 217.129C305.122 213.848 298.765 209.097 293.364 202.876C288.032 196.655 283.896 189.102 280.957 180.215C278.018 171.328 276.548 161.279 276.548 150.068V140.635C276.548 129.424 277.983 119.409 280.854 110.591C283.794 101.704 287.93 94.1504 293.262 87.9297C298.594 81.6406 304.917 76.8555 312.231 73.5742C319.614 70.293 327.715 68.6523 336.533 68.6523C345.625 68.6523 353.828 70.293 361.143 73.5742C368.525 76.8555 374.849 81.6406 380.112 87.9297C385.444 94.1504 389.512 101.704 392.314 110.591C395.186 119.409 396.621 129.424 396.621 140.635ZM377.036 150.068V140.43C377.036 131.543 376.113 123.682 374.268 116.846C372.49 110.01 369.858 104.268 366.372 99.6191C362.886 94.9707 358.613 91.4502 353.555 89.0576C348.564 86.665 342.891 85.4688 336.533 85.4688C330.381 85.4688 324.81 86.665 319.819 89.0576C314.897 91.4502 310.659 94.9707 307.104 99.6191C303.618 104.268 300.918 110.01 299.004 116.846C297.09 123.682 296.133 131.543 296.133 140.43V150.068C296.133 159.023 297.09 166.953 299.004 173.857C300.918 180.693 303.652 186.47 307.207 191.187C310.83 195.835 315.103 199.355 320.024 201.748C325.015 204.141 330.586 205.337 336.738 205.337C343.164 205.337 348.872 204.141 353.862 201.748C358.853 199.355 363.057 195.835 366.475 191.187C369.961 186.47 372.593 180.693 374.37 173.857C376.147 166.953 377.036 159.023 377.036 150.068ZM522.231 169.756V185.342H414.36V174.165L481.216 70.7031H496.699L480.088 100.645L435.894 169.756H522.231ZM501.416 70.7031V220H482.446V70.7031H501.416ZM637.28 204.414V220H539.561V206.362L588.472 151.914C594.487 145.215 599.136 139.541 602.417 134.893C605.767 130.176 608.091 125.972 609.39 122.28C610.757 118.521 611.44 114.692 611.44 110.796C611.44 105.874 610.415 101.431 608.364 97.4658C606.382 93.4326 603.442 90.2197 599.546 87.8271C595.649 85.4346 590.933 84.2383 585.396 84.2383C578.765 84.2383 573.228 85.5371 568.784 88.1348C564.409 90.6641 561.128 94.2187 558.94 98.7988C556.753 103.379 555.659 108.643 555.659 114.59H536.689C536.689 106.182 538.535 98.4912 542.227 91.5186C545.918 84.5459 551.387 79.0088 558.633 74.9072C565.879 70.7373 574.8 68.6523 585.396 68.6523C594.829 68.6523 602.896 70.3271 609.595 73.6768C616.294 76.958 621.421 81.6064 624.976 87.6221C628.599 93.5693 630.41 100.542 630.41 108.54C630.41 112.915 629.658 117.358 628.154 121.87C626.719 126.313 624.702 130.757 622.104 135.2C619.575 139.644 616.602 144.019 613.184 148.325C609.834 152.632 606.245 156.87 602.417 161.04L562.427 204.414H637.28ZM751.304 133.457V156.221C751.304 168.457 750.21 178.779 748.022 187.188C745.835 195.596 742.69 202.363 738.589 207.49C734.487 212.617 729.531 216.343 723.721 218.667C717.979 220.923 711.484 222.051 704.238 222.051C698.496 222.051 693.198 221.333 688.345 219.897C683.491 218.462 679.116 216.172 675.22 213.027C671.392 209.814 668.11 205.645 665.376 200.518C662.642 195.391 660.557 189.17 659.121 181.855C657.686 174.541 656.968 165.996 656.968 156.221V133.457C656.968 121.221 658.062 110.967 660.249 102.695C662.505 94.4238 665.684 87.793 669.785 82.8027C673.887 77.7441 678.809 74.1211 684.551 71.9336C690.361 69.7461 696.855 68.6523 704.033 68.6523C709.844 68.6523 715.176 69.3701 720.029 70.8057C724.951 72.1729 729.326 74.3945 733.154 77.4707C736.982 80.4785 740.229 84.5117 742.896 89.5703C745.63 94.5605 747.715 100.679 749.15 107.925C750.586 115.171 751.304 123.682 751.304 133.457ZM732.231 159.297V130.278C732.231 123.579 731.821 117.7 731.001 112.642C730.249 107.515 729.121 103.14 727.617 99.5166C726.113 95.8936 724.199 92.9541 721.875 90.6982C719.619 88.4424 716.987 86.8018 713.979 85.7764C711.04 84.6826 707.725 84.1357 704.033 84.1357C699.521 84.1357 695.522 84.9902 692.036 86.6992C688.55 88.3398 685.61 90.9717 683.218 94.5947C680.894 98.2178 679.116 102.969 677.886 108.848C676.655 114.727 676.04 121.87 676.04 130.278V159.297C676.04 165.996 676.416 171.909 677.168 177.036C677.988 182.163 679.185 186.606 680.757 190.366C682.329 194.058 684.243 197.1 686.499 199.492C688.755 201.885 691.353 203.662 694.292 204.824C697.3 205.918 700.615 206.465 704.238 206.465C708.887 206.465 712.954 205.576 716.44 203.799C719.927 202.021 722.832 199.253 725.156 195.493C727.549 191.665 729.326 186.777 730.488 180.83C731.65 174.814 732.231 167.637 732.231 159.297Z" fill="black"/>
<rect width="413" height="25" fill="#3EEBAD"/>
<rect x="413" y="271" width="351" height="25" fill="#3EEBAD"/>
</svg>
